<mxfile host="Electron" agent="Mozilla/5.0 (Windows NT 10.0; Win64; x64) AppleWebKit/537.36 (KHTML, like Gecko) draw.io/24.7.17 Chrome/128.0.6613.36 Electron/32.0.1 Safari/537.36" version="24.7.17" pages="5">
  <diagram name="HOME DESKTOP" id="03018318-947c-dd8e-b7a3-06fadd420f32">
    <mxGraphModel dx="1434" dy="836" grid="1" gridSize="10" guides="1" tooltips="1" connect="1" arrows="1" fold="1" page="1" pageScale="1" pageWidth="1100" pageHeight="850" background="#ffffff" math="0" shadow="0">
      <root>
        <mxCell id="0" />
        <mxCell id="1" parent="0" />
        <mxCell id="677b7b8949515195-10" value="" style="whiteSpace=wrap;html=1;rounded=0;shadow=0;labelBackgroundColor=none;strokeWidth=1;fillColor=none;fontFamily=Verdana;fontSize=12;align=center;comic=1;" parent="1" vertex="1">
          <mxGeometry x="30" y="115" width="1040" height="50" as="geometry" />
        </mxCell>
        <mxCell id="677b7b8949515195-1" value="" style="whiteSpace=wrap;html=1;rounded=0;shadow=0;labelBackgroundColor=none;strokeColor=#000000;strokeWidth=1;fillColor=none;fontFamily=Verdana;fontSize=12;fontColor=#000000;align=center;comic=1;" parent="1" vertex="1">
          <mxGeometry x="20" y="20" width="1060" height="810" as="geometry" />
        </mxCell>
        <mxCell id="677b7b8949515195-2" value="LOGO" style="whiteSpace=wrap;html=1;rounded=0;shadow=0;labelBackgroundColor=none;strokeWidth=1;fontFamily=Verdana;fontSize=28;align=center;comic=1;" parent="1" vertex="1">
          <mxGeometry x="50" y="40" width="190" height="50" as="geometry" />
        </mxCell>
        <mxCell id="677b7b8949515195-4" value="accueil" style="text;html=1;points=[];align=left;verticalAlign=top;spacingTop=-4;fontSize=14;fontFamily=Verdana" parent="1" vertex="1">
          <mxGeometry x="230" y="130" width="60" height="20" as="geometry" />
        </mxCell>
        <mxCell id="677b7b8949515195-5" value="nom du site" style="text;html=1;points=[];align=left;verticalAlign=top;spacingTop=-4;fontSize=14;fontFamily=Verdana" parent="1" vertex="1">
          <mxGeometry x="417" y="50" width="123" height="25" as="geometry" />
        </mxCell>
        <mxCell id="677b7b8949515195-11" value="NAV" style="text;html=1;points=[];align=left;verticalAlign=top;spacingTop=-4;fontSize=14;fontFamily=Verdana" parent="1" vertex="1">
          <mxGeometry x="50" y="130" width="60" height="20" as="geometry" />
        </mxCell>
        <mxCell id="677b7b8949515195-12" value="bibliothèque" style="text;html=1;points=[];align=left;verticalAlign=top;spacingTop=-4;fontSize=14;fontFamily=Verdana" parent="1" vertex="1">
          <mxGeometry x="330" y="130" width="100" height="20" as="geometry" />
        </mxCell>
        <mxCell id="677b7b8949515195-13" value="sheet" style="text;html=1;points=[];align=left;verticalAlign=top;spacingTop=-4;fontSize=14;fontFamily=Verdana" parent="1" vertex="1">
          <mxGeometry x="448.5" y="130" width="60" height="20" as="geometry" />
        </mxCell>
        <mxCell id="677b7b8949515195-14" value="profil" style="text;html=1;points=[];align=left;verticalAlign=top;spacingTop=-4;fontSize=14;fontFamily=Verdana" parent="1" vertex="1">
          <mxGeometry x="840" y="130" width="60" height="20" as="geometry" />
        </mxCell>
        <mxCell id="677b7b8949515195-16" value="" style="verticalLabelPosition=bottom;shadow=0;dashed=0;align=center;html=1;verticalAlign=top;strokeWidth=1;shape=mxgraph.mockup.graphics.simpleIcon;strokeColor=#999999;rounded=0;labelBackgroundColor=none;fontFamily=Verdana;fontSize=14;fontColor=#000000;comic=1;" parent="1" vertex="1">
          <mxGeometry x="250" y="320" width="580" height="410" as="geometry" />
        </mxCell>
        <mxCell id="TduPPMGWhFyPRui_iwuS-3" value="connection" style="text;html=1;points=[];align=left;verticalAlign=top;spacingTop=-4;fontSize=14;fontFamily=Verdana" parent="1" vertex="1">
          <mxGeometry x="545" y="130" width="90" height="20" as="geometry" />
        </mxCell>
        <mxCell id="TduPPMGWhFyPRui_iwuS-4" value="inscription" style="text;html=1;points=[];align=left;verticalAlign=top;spacingTop=-4;fontSize=14;fontFamily=Verdana" parent="1" vertex="1">
          <mxGeometry x="650" y="130" width="90" height="20" as="geometry" />
        </mxCell>
        <mxCell id="TduPPMGWhFyPRui_iwuS-8" value="" style="edgeStyle=orthogonalEdgeStyle;rounded=0;orthogonalLoop=1;jettySize=auto;html=1;" parent="1" source="TduPPMGWhFyPRui_iwuS-5" target="TduPPMGWhFyPRui_iwuS-7" edge="1">
          <mxGeometry relative="1" as="geometry" />
        </mxCell>
        <mxCell id="TduPPMGWhFyPRui_iwuS-5" value="" style="rounded=0;whiteSpace=wrap;html=1;fillColor=none;" parent="1" vertex="1">
          <mxGeometry x="530" y="120" width="210" height="40" as="geometry" />
        </mxCell>
        <mxCell id="TduPPMGWhFyPRui_iwuS-7" value="" style="rounded=0;whiteSpace=wrap;html=1;fillColor=none;" parent="1" vertex="1">
          <mxGeometry x="820" y="120" width="210" height="40" as="geometry" />
        </mxCell>
        <mxCell id="TduPPMGWhFyPRui_iwuS-9" value="logout" style="text;html=1;points=[];align=left;verticalAlign=top;spacingTop=-4;fontSize=14;fontFamily=Verdana" parent="1" vertex="1">
          <mxGeometry x="925" y="130" width="60" height="20" as="geometry" />
        </mxCell>
        <mxCell id="TduPPMGWhFyPRui_iwuS-10" value="home" style="rounded=0;whiteSpace=wrap;html=1;" parent="1" vertex="1">
          <mxGeometry x="980" width="120" height="40" as="geometry" />
        </mxCell>
        <mxCell id="Fq0RQAeDl8Lw81ocv9up-1" value="footer" style="rounded=0;whiteSpace=wrap;html=1;" parent="1" vertex="1">
          <mxGeometry x="20" y="760" width="1060" height="60" as="geometry" />
        </mxCell>
        <mxCell id="Fq0RQAeDl8Lw81ocv9up-2" value="Carouselle de sheet" style="rounded=0;whiteSpace=wrap;html=1;" parent="1" vertex="1">
          <mxGeometry x="250" y="180" width="580" height="130" as="geometry" />
        </mxCell>
        <mxCell id="kT8p4UGadNTOkCo5hpuR-1" value="présentation du site et du jdr" style="text;html=1;align=center;verticalAlign=middle;whiteSpace=wrap;rounded=0;" vertex="1" parent="1">
          <mxGeometry x="485" y="360" width="60" height="30" as="geometry" />
        </mxCell>
      </root>
    </mxGraphModel>
  </diagram>
  <diagram name="BIBLITHEQUE DESKTOP" id="a__9SUN8DHrn17DNHw5P">
    <mxGraphModel dx="1434" dy="836" grid="1" gridSize="10" guides="1" tooltips="1" connect="1" arrows="1" fold="1" page="1" pageScale="1" pageWidth="1100" pageHeight="850" background="#ffffff" math="0" shadow="0">
      <root>
        <mxCell id="iFGVRWnmcOkBloCwEFkq-0" />
        <mxCell id="iFGVRWnmcOkBloCwEFkq-1" parent="iFGVRWnmcOkBloCwEFkq-0" />
        <mxCell id="iFGVRWnmcOkBloCwEFkq-2" value="" style="whiteSpace=wrap;html=1;rounded=0;shadow=0;labelBackgroundColor=none;strokeWidth=1;fillColor=none;fontFamily=Verdana;fontSize=12;align=center;comic=1;" parent="iFGVRWnmcOkBloCwEFkq-1" vertex="1">
          <mxGeometry x="30" y="115" width="1040" height="50" as="geometry" />
        </mxCell>
        <mxCell id="iFGVRWnmcOkBloCwEFkq-3" value="" style="whiteSpace=wrap;html=1;rounded=0;shadow=0;labelBackgroundColor=none;strokeColor=#000000;strokeWidth=1;fillColor=none;fontFamily=Verdana;fontSize=12;fontColor=#000000;align=center;comic=1;" parent="iFGVRWnmcOkBloCwEFkq-1" vertex="1">
          <mxGeometry x="20" y="20" width="1060" height="810" as="geometry" />
        </mxCell>
        <mxCell id="iFGVRWnmcOkBloCwEFkq-4" value="LOGO" style="whiteSpace=wrap;html=1;rounded=0;shadow=0;labelBackgroundColor=none;strokeWidth=1;fontFamily=Verdana;fontSize=28;align=center;comic=1;" parent="iFGVRWnmcOkBloCwEFkq-1" vertex="1">
          <mxGeometry x="50" y="40" width="190" height="50" as="geometry" />
        </mxCell>
        <mxCell id="iFGVRWnmcOkBloCwEFkq-5" value="accueil" style="text;html=1;points=[];align=left;verticalAlign=top;spacingTop=-4;fontSize=14;fontFamily=Verdana" parent="iFGVRWnmcOkBloCwEFkq-1" vertex="1">
          <mxGeometry x="230" y="130" width="60" height="20" as="geometry" />
        </mxCell>
        <mxCell id="iFGVRWnmcOkBloCwEFkq-6" value="nom du site" style="text;html=1;points=[];align=left;verticalAlign=top;spacingTop=-4;fontSize=14;fontFamily=Verdana" parent="iFGVRWnmcOkBloCwEFkq-1" vertex="1">
          <mxGeometry x="417" y="50" width="123" height="25" as="geometry" />
        </mxCell>
        <mxCell id="iFGVRWnmcOkBloCwEFkq-7" value="" style="whiteSpace=wrap;html=1;rounded=0;shadow=0;labelBackgroundColor=none;strokeWidth=1;fillColor=none;fontFamily=Verdana;fontSize=12;align=center;comic=1;" parent="iFGVRWnmcOkBloCwEFkq-1" vertex="1">
          <mxGeometry x="30" y="230" width="200" height="590" as="geometry" />
        </mxCell>
        <mxCell id="iFGVRWnmcOkBloCwEFkq-8" value="NAV" style="text;html=1;points=[];align=left;verticalAlign=top;spacingTop=-4;fontSize=14;fontFamily=Verdana" parent="iFGVRWnmcOkBloCwEFkq-1" vertex="1">
          <mxGeometry x="50" y="130" width="60" height="20" as="geometry" />
        </mxCell>
        <mxCell id="iFGVRWnmcOkBloCwEFkq-9" value="bibliothèque" style="text;html=1;points=[];align=left;verticalAlign=top;spacingTop=-4;fontSize=14;fontFamily=Verdana" parent="iFGVRWnmcOkBloCwEFkq-1" vertex="1">
          <mxGeometry x="330" y="130" width="100" height="20" as="geometry" />
        </mxCell>
        <mxCell id="iFGVRWnmcOkBloCwEFkq-10" value="sheet" style="text;html=1;points=[];align=left;verticalAlign=top;spacingTop=-4;fontSize=14;fontFamily=Verdana" parent="iFGVRWnmcOkBloCwEFkq-1" vertex="1">
          <mxGeometry x="448.5" y="130" width="60" height="20" as="geometry" />
        </mxCell>
        <mxCell id="iFGVRWnmcOkBloCwEFkq-11" value="profil" style="text;html=1;points=[];align=left;verticalAlign=top;spacingTop=-4;fontSize=14;fontFamily=Verdana" parent="iFGVRWnmcOkBloCwEFkq-1" vertex="1">
          <mxGeometry x="840" y="130" width="60" height="20" as="geometry" />
        </mxCell>
        <mxCell id="iFGVRWnmcOkBloCwEFkq-12" value="" style="verticalLabelPosition=bottom;shadow=0;dashed=0;align=center;html=1;verticalAlign=top;strokeWidth=1;shape=mxgraph.mockup.graphics.simpleIcon;strokeColor=#999999;rounded=0;labelBackgroundColor=none;fontFamily=Verdana;fontSize=14;fontColor=#000000;comic=1;" parent="iFGVRWnmcOkBloCwEFkq-1" vertex="1">
          <mxGeometry x="250" y="230" width="810" height="530" as="geometry" />
        </mxCell>
        <mxCell id="iFGVRWnmcOkBloCwEFkq-35" value="connection" style="text;html=1;points=[];align=left;verticalAlign=top;spacingTop=-4;fontSize=14;fontFamily=Verdana" parent="iFGVRWnmcOkBloCwEFkq-1" vertex="1">
          <mxGeometry x="545" y="130" width="90" height="20" as="geometry" />
        </mxCell>
        <mxCell id="iFGVRWnmcOkBloCwEFkq-36" value="inscription" style="text;html=1;points=[];align=left;verticalAlign=top;spacingTop=-4;fontSize=14;fontFamily=Verdana" parent="iFGVRWnmcOkBloCwEFkq-1" vertex="1">
          <mxGeometry x="650" y="130" width="90" height="20" as="geometry" />
        </mxCell>
        <mxCell id="iFGVRWnmcOkBloCwEFkq-37" value="" style="edgeStyle=orthogonalEdgeStyle;rounded=0;orthogonalLoop=1;jettySize=auto;html=1;" parent="iFGVRWnmcOkBloCwEFkq-1" source="iFGVRWnmcOkBloCwEFkq-38" target="iFGVRWnmcOkBloCwEFkq-39" edge="1">
          <mxGeometry relative="1" as="geometry" />
        </mxCell>
        <mxCell id="iFGVRWnmcOkBloCwEFkq-38" value="" style="rounded=0;whiteSpace=wrap;html=1;fillColor=none;" parent="iFGVRWnmcOkBloCwEFkq-1" vertex="1">
          <mxGeometry x="530" y="120" width="210" height="40" as="geometry" />
        </mxCell>
        <mxCell id="iFGVRWnmcOkBloCwEFkq-39" value="" style="rounded=0;whiteSpace=wrap;html=1;fillColor=none;" parent="iFGVRWnmcOkBloCwEFkq-1" vertex="1">
          <mxGeometry x="820" y="120" width="210" height="40" as="geometry" />
        </mxCell>
        <mxCell id="iFGVRWnmcOkBloCwEFkq-40" value="logout" style="text;html=1;points=[];align=left;verticalAlign=top;spacingTop=-4;fontSize=14;fontFamily=Verdana" parent="iFGVRWnmcOkBloCwEFkq-1" vertex="1">
          <mxGeometry x="925" y="130" width="60" height="20" as="geometry" />
        </mxCell>
        <mxCell id="iFGVRWnmcOkBloCwEFkq-41" value="BIBLIOTHEQUE DESKTOP" style="rounded=0;whiteSpace=wrap;html=1;" parent="iFGVRWnmcOkBloCwEFkq-1" vertex="1">
          <mxGeometry x="980" width="120" height="40" as="geometry" />
        </mxCell>
        <mxCell id="lL--AMRBfGEfb7gEL-Uc-0" value="zone de recherche" style="rounded=0;whiteSpace=wrap;html=1;" parent="iFGVRWnmcOkBloCwEFkq-1" vertex="1">
          <mxGeometry x="40" y="240" width="180" height="60" as="geometry" />
        </mxCell>
        <mxCell id="lL--AMRBfGEfb7gEL-Uc-1" value="" style="rounded=0;whiteSpace=wrap;html=1;" parent="iFGVRWnmcOkBloCwEFkq-1" vertex="1">
          <mxGeometry x="40" y="320" width="170" height="220" as="geometry" />
        </mxCell>
        <mxCell id="lL--AMRBfGEfb7gEL-Uc-2" value="choix des tag pour filtrer les résultat" style="text;html=1;align=center;verticalAlign=middle;whiteSpace=wrap;rounded=0;" parent="iFGVRWnmcOkBloCwEFkq-1" vertex="1">
          <mxGeometry x="50" y="330" width="130" height="70" as="geometry" />
        </mxCell>
        <mxCell id="lL--AMRBfGEfb7gEL-Uc-3" value="Résultat de la recherche" style="text;html=1;align=center;verticalAlign=middle;whiteSpace=wrap;rounded=0;" parent="iFGVRWnmcOkBloCwEFkq-1" vertex="1">
          <mxGeometry x="530" y="270" width="220" height="70" as="geometry" />
        </mxCell>
        <mxCell id="lL--AMRBfGEfb7gEL-Uc-4" value="Footer" style="rounded=0;whiteSpace=wrap;html=1;" parent="iFGVRWnmcOkBloCwEFkq-1" vertex="1">
          <mxGeometry x="20" y="770" width="1060" height="60" as="geometry" />
        </mxCell>
      </root>
    </mxGraphModel>
  </diagram>
  <diagram name="SHEET DESKTOP" id="dgvaXXNBbPx5C2iwxm3Y">
    <mxGraphModel dx="1434" dy="836" grid="1" gridSize="10" guides="1" tooltips="1" connect="1" arrows="1" fold="1" page="1" pageScale="1" pageWidth="1100" pageHeight="850" background="#ffffff" math="0" shadow="0">
      <root>
        <mxCell id="ng6SaOLeytDzQV_BBr2D-0" />
        <mxCell id="ng6SaOLeytDzQV_BBr2D-1" parent="ng6SaOLeytDzQV_BBr2D-0" />
        <mxCell id="ng6SaOLeytDzQV_BBr2D-2" value="" style="whiteSpace=wrap;html=1;rounded=0;shadow=0;labelBackgroundColor=none;strokeWidth=1;fillColor=none;fontFamily=Verdana;fontSize=12;align=center;comic=1;" parent="ng6SaOLeytDzQV_BBr2D-1" vertex="1">
          <mxGeometry x="30" y="115" width="1040" height="50" as="geometry" />
        </mxCell>
        <mxCell id="ng6SaOLeytDzQV_BBr2D-3" value="" style="whiteSpace=wrap;html=1;rounded=0;shadow=0;labelBackgroundColor=none;strokeColor=#000000;strokeWidth=1;fillColor=none;fontFamily=Verdana;fontSize=12;fontColor=#000000;align=center;comic=1;" parent="ng6SaOLeytDzQV_BBr2D-1" vertex="1">
          <mxGeometry x="20" y="20" width="1060" height="810" as="geometry" />
        </mxCell>
        <mxCell id="ng6SaOLeytDzQV_BBr2D-4" value="LOGO" style="whiteSpace=wrap;html=1;rounded=0;shadow=0;labelBackgroundColor=none;strokeWidth=1;fontFamily=Verdana;fontSize=28;align=center;comic=1;" parent="ng6SaOLeytDzQV_BBr2D-1" vertex="1">
          <mxGeometry x="50" y="40" width="190" height="50" as="geometry" />
        </mxCell>
        <mxCell id="ng6SaOLeytDzQV_BBr2D-5" value="accueil" style="text;html=1;points=[];align=left;verticalAlign=top;spacingTop=-4;fontSize=14;fontFamily=Verdana" parent="ng6SaOLeytDzQV_BBr2D-1" vertex="1">
          <mxGeometry x="230" y="130" width="60" height="20" as="geometry" />
        </mxCell>
        <mxCell id="ng6SaOLeytDzQV_BBr2D-6" value="nom du site" style="text;html=1;points=[];align=left;verticalAlign=top;spacingTop=-4;fontSize=14;fontFamily=Verdana" parent="ng6SaOLeytDzQV_BBr2D-1" vertex="1">
          <mxGeometry x="417" y="50" width="123" height="25" as="geometry" />
        </mxCell>
        <mxCell id="ng6SaOLeytDzQV_BBr2D-7" value="" style="whiteSpace=wrap;html=1;rounded=0;shadow=0;labelBackgroundColor=none;strokeWidth=1;fillColor=none;fontFamily=Verdana;fontSize=12;align=center;comic=1;" parent="ng6SaOLeytDzQV_BBr2D-1" vertex="1">
          <mxGeometry x="30" y="230" width="200" height="530" as="geometry" />
        </mxCell>
        <mxCell id="ng6SaOLeytDzQV_BBr2D-8" value="NAV" style="text;html=1;points=[];align=left;verticalAlign=top;spacingTop=-4;fontSize=14;fontFamily=Verdana" parent="ng6SaOLeytDzQV_BBr2D-1" vertex="1">
          <mxGeometry x="50" y="130" width="60" height="20" as="geometry" />
        </mxCell>
        <mxCell id="ng6SaOLeytDzQV_BBr2D-9" value="bibliothèque" style="text;html=1;points=[];align=left;verticalAlign=top;spacingTop=-4;fontSize=14;fontFamily=Verdana" parent="ng6SaOLeytDzQV_BBr2D-1" vertex="1">
          <mxGeometry x="330" y="130" width="100" height="20" as="geometry" />
        </mxCell>
        <mxCell id="ng6SaOLeytDzQV_BBr2D-10" value="sheet" style="text;html=1;points=[];align=left;verticalAlign=top;spacingTop=-4;fontSize=14;fontFamily=Verdana" parent="ng6SaOLeytDzQV_BBr2D-1" vertex="1">
          <mxGeometry x="448.5" y="130" width="60" height="20" as="geometry" />
        </mxCell>
        <mxCell id="ng6SaOLeytDzQV_BBr2D-11" value="profil" style="text;html=1;points=[];align=left;verticalAlign=top;spacingTop=-4;fontSize=14;fontFamily=Verdana" parent="ng6SaOLeytDzQV_BBr2D-1" vertex="1">
          <mxGeometry x="840" y="130" width="60" height="20" as="geometry" />
        </mxCell>
        <mxCell id="ng6SaOLeytDzQV_BBr2D-12" value="" style="verticalLabelPosition=bottom;shadow=0;dashed=0;align=center;html=1;verticalAlign=top;strokeWidth=1;shape=mxgraph.mockup.graphics.simpleIcon;strokeColor=#999999;rounded=0;labelBackgroundColor=none;fontFamily=Verdana;fontSize=14;fontColor=#000000;comic=1;" parent="ng6SaOLeytDzQV_BBr2D-1" vertex="1">
          <mxGeometry x="250" y="230" width="580" height="530" as="geometry" />
        </mxCell>
        <mxCell id="ng6SaOLeytDzQV_BBr2D-13" value="" style="whiteSpace=wrap;html=1;rounded=0;shadow=0;labelBackgroundColor=none;strokeWidth=1;fillColor=none;fontFamily=Verdana;fontSize=12;align=center;comic=1;" parent="ng6SaOLeytDzQV_BBr2D-1" vertex="1">
          <mxGeometry x="840" y="230" width="230" height="590" as="geometry" />
        </mxCell>
        <mxCell id="ng6SaOLeytDzQV_BBr2D-35" value="connection" style="text;html=1;points=[];align=left;verticalAlign=top;spacingTop=-4;fontSize=14;fontFamily=Verdana" parent="ng6SaOLeytDzQV_BBr2D-1" vertex="1">
          <mxGeometry x="545" y="130" width="90" height="20" as="geometry" />
        </mxCell>
        <mxCell id="ng6SaOLeytDzQV_BBr2D-36" value="inscription" style="text;html=1;points=[];align=left;verticalAlign=top;spacingTop=-4;fontSize=14;fontFamily=Verdana" parent="ng6SaOLeytDzQV_BBr2D-1" vertex="1">
          <mxGeometry x="650" y="130" width="90" height="20" as="geometry" />
        </mxCell>
        <mxCell id="ng6SaOLeytDzQV_BBr2D-37" value="" style="edgeStyle=orthogonalEdgeStyle;rounded=0;orthogonalLoop=1;jettySize=auto;html=1;" parent="ng6SaOLeytDzQV_BBr2D-1" source="ng6SaOLeytDzQV_BBr2D-38" target="ng6SaOLeytDzQV_BBr2D-39" edge="1">
          <mxGeometry relative="1" as="geometry" />
        </mxCell>
        <mxCell id="ng6SaOLeytDzQV_BBr2D-38" value="" style="rounded=0;whiteSpace=wrap;html=1;fillColor=none;" parent="ng6SaOLeytDzQV_BBr2D-1" vertex="1">
          <mxGeometry x="530" y="120" width="210" height="40" as="geometry" />
        </mxCell>
        <mxCell id="ng6SaOLeytDzQV_BBr2D-39" value="" style="rounded=0;whiteSpace=wrap;html=1;fillColor=none;" parent="ng6SaOLeytDzQV_BBr2D-1" vertex="1">
          <mxGeometry x="820" y="120" width="210" height="40" as="geometry" />
        </mxCell>
        <mxCell id="ng6SaOLeytDzQV_BBr2D-40" value="logout" style="text;html=1;points=[];align=left;verticalAlign=top;spacingTop=-4;fontSize=14;fontFamily=Verdana" parent="ng6SaOLeytDzQV_BBr2D-1" vertex="1">
          <mxGeometry x="925" y="130" width="60" height="20" as="geometry" />
        </mxCell>
        <mxCell id="ng6SaOLeytDzQV_BBr2D-41" value="SHEET DESKTOP" style="rounded=0;whiteSpace=wrap;html=1;" parent="ng6SaOLeytDzQV_BBr2D-1" vertex="1">
          <mxGeometry x="980" width="120" height="40" as="geometry" />
        </mxCell>
        <mxCell id="dfl7-4zDikQHjHaV3y0W-0" value="Panel properties" style="rounded=0;whiteSpace=wrap;html=1;" parent="ng6SaOLeytDzQV_BBr2D-1" vertex="1">
          <mxGeometry x="860" y="246" width="200" height="514" as="geometry" />
        </mxCell>
        <mxCell id="-gkt943oDN0pluu-bRpO-0" value="SQUARE" style="rounded=0;whiteSpace=wrap;html=1;" parent="ng6SaOLeytDzQV_BBr2D-1" vertex="1">
          <mxGeometry x="40" y="240" width="170" height="60" as="geometry" />
        </mxCell>
        <mxCell id="-gkt943oDN0pluu-bRpO-1" value="CIRCLE" style="rounded=0;whiteSpace=wrap;html=1;" parent="ng6SaOLeytDzQV_BBr2D-1" vertex="1">
          <mxGeometry x="40" y="310" width="170" height="60" as="geometry" />
        </mxCell>
        <mxCell id="-gkt943oDN0pluu-bRpO-2" value="TRIANGLE" style="rounded=0;whiteSpace=wrap;html=1;" parent="ng6SaOLeytDzQV_BBr2D-1" vertex="1">
          <mxGeometry x="40" y="380" width="170" height="60" as="geometry" />
        </mxCell>
        <mxCell id="-gkt943oDN0pluu-bRpO-3" value="OTHER FORM" style="rounded=0;whiteSpace=wrap;html=1;" parent="ng6SaOLeytDzQV_BBr2D-1" vertex="1">
          <mxGeometry x="40" y="450" width="170" height="60" as="geometry" />
        </mxCell>
        <mxCell id="-gkt943oDN0pluu-bRpO-5" value="Zone de dessin" style="rounded=0;whiteSpace=wrap;html=1;" parent="ng6SaOLeytDzQV_BBr2D-1" vertex="1">
          <mxGeometry x="390" y="270" width="300" height="70" as="geometry" />
        </mxCell>
        <mxCell id="yfmCePMUWnpLUGM0I0hP-0" value="Footer" style="rounded=0;whiteSpace=wrap;html=1;" vertex="1" parent="ng6SaOLeytDzQV_BBr2D-1">
          <mxGeometry x="20" y="770" width="1060" height="60" as="geometry" />
        </mxCell>
      </root>
    </mxGraphModel>
  </diagram>
  <diagram name=" Inscription DESKTOP" id="GKnaK8nBUQVOvrvpHi68">
    <mxGraphModel dx="1416" dy="818" grid="1" gridSize="10" guides="1" tooltips="1" connect="1" arrows="1" fold="1" page="1" pageScale="1" pageWidth="1100" pageHeight="850" background="#ffffff" math="0" shadow="0">
      <root>
        <mxCell id="5jg4AxjGorbETNwIut-1-0" />
        <mxCell id="5jg4AxjGorbETNwIut-1-1" parent="5jg4AxjGorbETNwIut-1-0" />
        <mxCell id="5jg4AxjGorbETNwIut-1-2" value="" style="whiteSpace=wrap;html=1;rounded=0;shadow=0;labelBackgroundColor=none;strokeWidth=1;fillColor=none;fontFamily=Verdana;fontSize=12;align=center;comic=1;" parent="5jg4AxjGorbETNwIut-1-1" vertex="1">
          <mxGeometry x="30" y="115" width="1040" height="50" as="geometry" />
        </mxCell>
        <mxCell id="5jg4AxjGorbETNwIut-1-3" value="" style="whiteSpace=wrap;html=1;rounded=0;shadow=0;labelBackgroundColor=none;strokeColor=#000000;strokeWidth=1;fillColor=none;fontFamily=Verdana;fontSize=12;fontColor=#000000;align=center;comic=1;" parent="5jg4AxjGorbETNwIut-1-1" vertex="1">
          <mxGeometry x="20" y="20" width="1060" height="810" as="geometry" />
        </mxCell>
        <mxCell id="5jg4AxjGorbETNwIut-1-4" value="LOGO" style="whiteSpace=wrap;html=1;rounded=0;shadow=0;labelBackgroundColor=none;strokeWidth=1;fontFamily=Verdana;fontSize=28;align=center;comic=1;" parent="5jg4AxjGorbETNwIut-1-1" vertex="1">
          <mxGeometry x="50" y="40" width="190" height="50" as="geometry" />
        </mxCell>
        <mxCell id="5jg4AxjGorbETNwIut-1-5" value="accueil" style="text;html=1;points=[];align=left;verticalAlign=top;spacingTop=-4;fontSize=14;fontFamily=Verdana" parent="5jg4AxjGorbETNwIut-1-1" vertex="1">
          <mxGeometry x="230" y="130" width="60" height="20" as="geometry" />
        </mxCell>
        <mxCell id="5jg4AxjGorbETNwIut-1-6" value="nom du site" style="text;html=1;points=[];align=left;verticalAlign=top;spacingTop=-4;fontSize=14;fontFamily=Verdana" parent="5jg4AxjGorbETNwIut-1-1" vertex="1">
          <mxGeometry x="417" y="50" width="123" height="25" as="geometry" />
        </mxCell>
        <mxCell id="5jg4AxjGorbETNwIut-1-8" value="NAV" style="text;html=1;points=[];align=left;verticalAlign=top;spacingTop=-4;fontSize=14;fontFamily=Verdana" parent="5jg4AxjGorbETNwIut-1-1" vertex="1">
          <mxGeometry x="50" y="130" width="60" height="20" as="geometry" />
        </mxCell>
        <mxCell id="5jg4AxjGorbETNwIut-1-9" value="bibliothèque" style="text;html=1;points=[];align=left;verticalAlign=top;spacingTop=-4;fontSize=14;fontFamily=Verdana" parent="5jg4AxjGorbETNwIut-1-1" vertex="1">
          <mxGeometry x="330" y="130" width="100" height="20" as="geometry" />
        </mxCell>
        <mxCell id="5jg4AxjGorbETNwIut-1-10" value="sheet" style="text;html=1;points=[];align=left;verticalAlign=top;spacingTop=-4;fontSize=14;fontFamily=Verdana" parent="5jg4AxjGorbETNwIut-1-1" vertex="1">
          <mxGeometry x="448.5" y="130" width="60" height="20" as="geometry" />
        </mxCell>
        <mxCell id="5jg4AxjGorbETNwIut-1-11" value="profil" style="text;html=1;points=[];align=left;verticalAlign=top;spacingTop=-4;fontSize=14;fontFamily=Verdana" parent="5jg4AxjGorbETNwIut-1-1" vertex="1">
          <mxGeometry x="840" y="130" width="60" height="20" as="geometry" />
        </mxCell>
        <mxCell id="5jg4AxjGorbETNwIut-1-35" value="connection" style="text;html=1;points=[];align=left;verticalAlign=top;spacingTop=-4;fontSize=14;fontFamily=Verdana" parent="5jg4AxjGorbETNwIut-1-1" vertex="1">
          <mxGeometry x="545" y="130" width="90" height="20" as="geometry" />
        </mxCell>
        <mxCell id="5jg4AxjGorbETNwIut-1-36" value="inscription" style="text;html=1;points=[];align=left;verticalAlign=top;spacingTop=-4;fontSize=14;fontFamily=Verdana" parent="5jg4AxjGorbETNwIut-1-1" vertex="1">
          <mxGeometry x="650" y="130" width="90" height="20" as="geometry" />
        </mxCell>
        <mxCell id="5jg4AxjGorbETNwIut-1-37" value="" style="edgeStyle=orthogonalEdgeStyle;rounded=0;orthogonalLoop=1;jettySize=auto;html=1;" parent="5jg4AxjGorbETNwIut-1-1" source="5jg4AxjGorbETNwIut-1-38" target="5jg4AxjGorbETNwIut-1-39" edge="1">
          <mxGeometry relative="1" as="geometry" />
        </mxCell>
        <mxCell id="5jg4AxjGorbETNwIut-1-38" value="" style="rounded=0;whiteSpace=wrap;html=1;fillColor=none;" parent="5jg4AxjGorbETNwIut-1-1" vertex="1">
          <mxGeometry x="530" y="120" width="210" height="40" as="geometry" />
        </mxCell>
        <mxCell id="5jg4AxjGorbETNwIut-1-39" value="" style="rounded=0;whiteSpace=wrap;html=1;fillColor=none;" parent="5jg4AxjGorbETNwIut-1-1" vertex="1">
          <mxGeometry x="820" y="120" width="210" height="40" as="geometry" />
        </mxCell>
        <mxCell id="5jg4AxjGorbETNwIut-1-40" value="logout" style="text;html=1;points=[];align=left;verticalAlign=top;spacingTop=-4;fontSize=14;fontFamily=Verdana" parent="5jg4AxjGorbETNwIut-1-1" vertex="1">
          <mxGeometry x="925" y="130" width="60" height="20" as="geometry" />
        </mxCell>
        <mxCell id="5jg4AxjGorbETNwIut-1-41" value="&amp;nbsp;inscription DESKTOP" style="rounded=0;whiteSpace=wrap;html=1;" parent="5jg4AxjGorbETNwIut-1-1" vertex="1">
          <mxGeometry x="980" width="120" height="40" as="geometry" />
        </mxCell>
        <mxCell id="cZ5gKcuFklFOWuo3FTKv-0" value="" style="group" vertex="1" connectable="0" parent="5jg4AxjGorbETNwIut-1-1">
          <mxGeometry x="310" y="300" width="420" height="360" as="geometry" />
        </mxCell>
        <mxCell id="cZ5gKcuFklFOWuo3FTKv-1" value="" style="rounded=0;whiteSpace=wrap;html=1;" vertex="1" parent="cZ5gKcuFklFOWuo3FTKv-0">
          <mxGeometry width="420" height="360" as="geometry" />
        </mxCell>
        <mxCell id="cZ5gKcuFklFOWuo3FTKv-2" value="inscription" style="text;html=1;align=center;verticalAlign=middle;whiteSpace=wrap;rounded=0;" vertex="1" parent="cZ5gKcuFklFOWuo3FTKv-0">
          <mxGeometry x="170" y="15" width="60" height="30" as="geometry" />
        </mxCell>
        <mxCell id="cZ5gKcuFklFOWuo3FTKv-3" value="Username" style="text;html=1;align=center;verticalAlign=middle;whiteSpace=wrap;rounded=0;" vertex="1" parent="cZ5gKcuFklFOWuo3FTKv-0">
          <mxGeometry x="58.5" y="45" width="60" height="30" as="geometry" />
        </mxCell>
        <mxCell id="cZ5gKcuFklFOWuo3FTKv-4" value="" style="rounded=0;whiteSpace=wrap;html=1;" vertex="1" parent="cZ5gKcuFklFOWuo3FTKv-0">
          <mxGeometry x="60" y="75" width="300" height="30" as="geometry" />
        </mxCell>
        <mxCell id="cZ5gKcuFklFOWuo3FTKv-5" value="Email" style="text;html=1;align=center;verticalAlign=middle;whiteSpace=wrap;rounded=0;" vertex="1" parent="cZ5gKcuFklFOWuo3FTKv-0">
          <mxGeometry x="50" y="105" width="60" height="30" as="geometry" />
        </mxCell>
        <mxCell id="cZ5gKcuFklFOWuo3FTKv-6" value="" style="rounded=0;whiteSpace=wrap;html=1;" vertex="1" parent="cZ5gKcuFklFOWuo3FTKv-0">
          <mxGeometry x="60" y="135" width="300" height="30" as="geometry" />
        </mxCell>
        <mxCell id="cZ5gKcuFklFOWuo3FTKv-7" value="Password" style="text;html=1;align=center;verticalAlign=middle;whiteSpace=wrap;rounded=0;" vertex="1" parent="cZ5gKcuFklFOWuo3FTKv-0">
          <mxGeometry x="58.5" y="165" width="60" height="30" as="geometry" />
        </mxCell>
        <mxCell id="cZ5gKcuFklFOWuo3FTKv-8" value="" style="rounded=0;whiteSpace=wrap;html=1;" vertex="1" parent="cZ5gKcuFklFOWuo3FTKv-0">
          <mxGeometry x="60" y="195" width="300" height="30" as="geometry" />
        </mxCell>
        <mxCell id="cZ5gKcuFklFOWuo3FTKv-9" value="inscription" style="text;html=1;align=center;verticalAlign=middle;whiteSpace=wrap;rounded=0;" vertex="1" parent="cZ5gKcuFklFOWuo3FTKv-0">
          <mxGeometry x="150" y="305" width="120" height="30" as="geometry" />
        </mxCell>
        <mxCell id="cZ5gKcuFklFOWuo3FTKv-10" value="Confirm password" style="text;html=1;align=center;verticalAlign=middle;whiteSpace=wrap;rounded=0;" vertex="1" parent="cZ5gKcuFklFOWuo3FTKv-0">
          <mxGeometry x="59.25" y="225" width="110.75" height="30" as="geometry" />
        </mxCell>
        <mxCell id="cZ5gKcuFklFOWuo3FTKv-11" value="" style="rounded=0;whiteSpace=wrap;html=1;" vertex="1" parent="cZ5gKcuFklFOWuo3FTKv-0">
          <mxGeometry x="60.75" y="255" width="300" height="30" as="geometry" />
        </mxCell>
        <mxCell id="cZ5gKcuFklFOWuo3FTKv-24" value="footer" style="rounded=0;whiteSpace=wrap;html=1;" vertex="1" parent="5jg4AxjGorbETNwIut-1-1">
          <mxGeometry x="20" y="770" width="1060" height="60" as="geometry" />
        </mxCell>
      </root>
    </mxGraphModel>
  </diagram>
  <diagram name="login DESKTOP" id="fLx-g-5Ctmrk7Na5RXVk">
    <mxGraphModel dx="1416" dy="818" grid="1" gridSize="10" guides="1" tooltips="1" connect="1" arrows="1" fold="1" page="1" pageScale="1" pageWidth="1100" pageHeight="850" background="#ffffff" math="0" shadow="0">
      <root>
        <mxCell id="_0IOvecwKPjVDiUq226T-0" />
        <mxCell id="_0IOvecwKPjVDiUq226T-1" parent="_0IOvecwKPjVDiUq226T-0" />
        <mxCell id="_0IOvecwKPjVDiUq226T-2" value="" style="whiteSpace=wrap;html=1;rounded=0;shadow=0;labelBackgroundColor=none;strokeWidth=1;fillColor=none;fontFamily=Verdana;fontSize=12;align=center;comic=1;" vertex="1" parent="_0IOvecwKPjVDiUq226T-1">
          <mxGeometry x="30" y="115" width="1040" height="50" as="geometry" />
        </mxCell>
        <mxCell id="_0IOvecwKPjVDiUq226T-3" value="" style="whiteSpace=wrap;html=1;rounded=0;shadow=0;labelBackgroundColor=none;strokeColor=#000000;strokeWidth=1;fillColor=none;fontFamily=Verdana;fontSize=12;fontColor=#000000;align=center;comic=1;" vertex="1" parent="_0IOvecwKPjVDiUq226T-1">
          <mxGeometry x="20" y="20" width="1060" height="810" as="geometry" />
        </mxCell>
        <mxCell id="_0IOvecwKPjVDiUq226T-4" value="LOGO" style="whiteSpace=wrap;html=1;rounded=0;shadow=0;labelBackgroundColor=none;strokeWidth=1;fontFamily=Verdana;fontSize=28;align=center;comic=1;" vertex="1" parent="_0IOvecwKPjVDiUq226T-1">
          <mxGeometry x="50" y="40" width="190" height="50" as="geometry" />
        </mxCell>
        <mxCell id="_0IOvecwKPjVDiUq226T-5" value="accueil" style="text;html=1;points=[];align=left;verticalAlign=top;spacingTop=-4;fontSize=14;fontFamily=Verdana" vertex="1" parent="_0IOvecwKPjVDiUq226T-1">
          <mxGeometry x="230" y="130" width="60" height="20" as="geometry" />
        </mxCell>
        <mxCell id="_0IOvecwKPjVDiUq226T-6" value="nom du site" style="text;html=1;points=[];align=left;verticalAlign=top;spacingTop=-4;fontSize=14;fontFamily=Verdana" vertex="1" parent="_0IOvecwKPjVDiUq226T-1">
          <mxGeometry x="417" y="50" width="123" height="25" as="geometry" />
        </mxCell>
        <mxCell id="_0IOvecwKPjVDiUq226T-7" value="NAV" style="text;html=1;points=[];align=left;verticalAlign=top;spacingTop=-4;fontSize=14;fontFamily=Verdana" vertex="1" parent="_0IOvecwKPjVDiUq226T-1">
          <mxGeometry x="50" y="130" width="60" height="20" as="geometry" />
        </mxCell>
        <mxCell id="_0IOvecwKPjVDiUq226T-8" value="bibliothèque" style="text;html=1;points=[];align=left;verticalAlign=top;spacingTop=-4;fontSize=14;fontFamily=Verdana" vertex="1" parent="_0IOvecwKPjVDiUq226T-1">
          <mxGeometry x="330" y="130" width="100" height="20" as="geometry" />
        </mxCell>
        <mxCell id="_0IOvecwKPjVDiUq226T-9" value="sheet" style="text;html=1;points=[];align=left;verticalAlign=top;spacingTop=-4;fontSize=14;fontFamily=Verdana" vertex="1" parent="_0IOvecwKPjVDiUq226T-1">
          <mxGeometry x="448.5" y="130" width="60" height="20" as="geometry" />
        </mxCell>
        <mxCell id="_0IOvecwKPjVDiUq226T-10" value="profil" style="text;html=1;points=[];align=left;verticalAlign=top;spacingTop=-4;fontSize=14;fontFamily=Verdana" vertex="1" parent="_0IOvecwKPjVDiUq226T-1">
          <mxGeometry x="840" y="130" width="60" height="20" as="geometry" />
        </mxCell>
        <mxCell id="_0IOvecwKPjVDiUq226T-11" value="connection" style="text;html=1;points=[];align=left;verticalAlign=top;spacingTop=-4;fontSize=14;fontFamily=Verdana" vertex="1" parent="_0IOvecwKPjVDiUq226T-1">
          <mxGeometry x="545" y="130" width="90" height="20" as="geometry" />
        </mxCell>
        <mxCell id="_0IOvecwKPjVDiUq226T-12" value="inscription" style="text;html=1;points=[];align=left;verticalAlign=top;spacingTop=-4;fontSize=14;fontFamily=Verdana" vertex="1" parent="_0IOvecwKPjVDiUq226T-1">
          <mxGeometry x="650" y="130" width="90" height="20" as="geometry" />
        </mxCell>
        <mxCell id="_0IOvecwKPjVDiUq226T-13" value="" style="edgeStyle=orthogonalEdgeStyle;rounded=0;orthogonalLoop=1;jettySize=auto;html=1;" edge="1" parent="_0IOvecwKPjVDiUq226T-1" source="_0IOvecwKPjVDiUq226T-14" target="_0IOvecwKPjVDiUq226T-15">
          <mxGeometry relative="1" as="geometry" />
        </mxCell>
        <mxCell id="_0IOvecwKPjVDiUq226T-14" value="" style="rounded=0;whiteSpace=wrap;html=1;fillColor=none;" vertex="1" parent="_0IOvecwKPjVDiUq226T-1">
          <mxGeometry x="530" y="120" width="210" height="40" as="geometry" />
        </mxCell>
        <mxCell id="_0IOvecwKPjVDiUq226T-15" value="" style="rounded=0;whiteSpace=wrap;html=1;fillColor=none;" vertex="1" parent="_0IOvecwKPjVDiUq226T-1">
          <mxGeometry x="820" y="120" width="210" height="40" as="geometry" />
        </mxCell>
        <mxCell id="_0IOvecwKPjVDiUq226T-16" value="logout" style="text;html=1;points=[];align=left;verticalAlign=top;spacingTop=-4;fontSize=14;fontFamily=Verdana" vertex="1" parent="_0IOvecwKPjVDiUq226T-1">
          <mxGeometry x="925" y="130" width="60" height="20" as="geometry" />
        </mxCell>
        <mxCell id="_0IOvecwKPjVDiUq226T-17" value="login DESKTOP" style="rounded=0;whiteSpace=wrap;html=1;" vertex="1" parent="_0IOvecwKPjVDiUq226T-1">
          <mxGeometry x="980" width="120" height="40" as="geometry" />
        </mxCell>
        <mxCell id="_0IOvecwKPjVDiUq226T-18" value="" style="group" vertex="1" connectable="0" parent="_0IOvecwKPjVDiUq226T-1">
          <mxGeometry x="310" y="300" width="420" height="360" as="geometry" />
        </mxCell>
        <mxCell id="_0IOvecwKPjVDiUq226T-19" value="" style="rounded=0;whiteSpace=wrap;html=1;" vertex="1" parent="_0IOvecwKPjVDiUq226T-18">
          <mxGeometry width="420" height="240" as="geometry" />
        </mxCell>
        <mxCell id="_0IOvecwKPjVDiUq226T-20" value="inscription" style="text;html=1;align=center;verticalAlign=middle;whiteSpace=wrap;rounded=0;" vertex="1" parent="_0IOvecwKPjVDiUq226T-18">
          <mxGeometry x="170" y="15" width="60" height="30" as="geometry" />
        </mxCell>
        <mxCell id="_0IOvecwKPjVDiUq226T-23" value="Email" style="text;html=1;align=center;verticalAlign=middle;whiteSpace=wrap;rounded=0;" vertex="1" parent="_0IOvecwKPjVDiUq226T-18">
          <mxGeometry x="50" y="50" width="60" height="30" as="geometry" />
        </mxCell>
        <mxCell id="_0IOvecwKPjVDiUq226T-24" value="" style="rounded=0;whiteSpace=wrap;html=1;" vertex="1" parent="_0IOvecwKPjVDiUq226T-18">
          <mxGeometry x="60" y="80" width="300" height="30" as="geometry" />
        </mxCell>
        <mxCell id="_0IOvecwKPjVDiUq226T-25" value="Password" style="text;html=1;align=center;verticalAlign=middle;whiteSpace=wrap;rounded=0;" vertex="1" parent="_0IOvecwKPjVDiUq226T-18">
          <mxGeometry x="58.5" y="110" width="60" height="30" as="geometry" />
        </mxCell>
        <mxCell id="_0IOvecwKPjVDiUq226T-26" value="" style="rounded=0;whiteSpace=wrap;html=1;" vertex="1" parent="_0IOvecwKPjVDiUq226T-18">
          <mxGeometry x="60" y="140" width="300" height="30" as="geometry" />
        </mxCell>
        <mxCell id="_0IOvecwKPjVDiUq226T-27" value="login" style="text;html=1;align=center;verticalAlign=middle;whiteSpace=wrap;rounded=0;" vertex="1" parent="_0IOvecwKPjVDiUq226T-18">
          <mxGeometry x="140" y="190" width="120" height="30" as="geometry" />
        </mxCell>
        <mxCell id="_0IOvecwKPjVDiUq226T-30" value="footer" style="rounded=0;whiteSpace=wrap;html=1;" vertex="1" parent="_0IOvecwKPjVDiUq226T-1">
          <mxGeometry x="20" y="770" width="1060" height="60" as="geometry" />
        </mxCell>
      </root>
    </mxGraphModel>
  </diagram>
</mxfile>
